<?xml version="1.0" encoding="utf-8"?>
<!-- Generator: Adobe Illustrator 19.0.0, SVG Export Plug-In . SVG Version: 6.00 Build 0)  -->
<svg version="1.1" id="Layer_1" xmlns="http://www.w3.org/2000/svg" xmlns:xlink="http://www.w3.org/1999/xlink" x="0px" y="0px"
	 viewBox="-56.6 255.4 51.2 51.2" style="enable-background:new -56.6 255.4 51.2 51.2;" xml:space="preserve">
<path d="M-5.4,281c0,14.1-11.5,25.6-25.6,25.6s-25.6-11.5-25.6-25.6s11.5-25.6,25.6-25.6S-5.4,266.9-5.4,281z M-39.3,276h-6.2v20
	h6.2V276z M-38.8,269.6c0-2-1.6-3.6-3.6-3.6c-2,0-3.6,1.6-3.6,3.6c0,2,1.6,3.6,3.6,3.6C-40.4,273.2-38.8,271.6-38.8,269.6z M-16,296
	v-11c0-5.4-1.2-9.5-7.4-9.5c-3,0-5.1,1.7-5.9,3.2h-0.1V276h-6v20h6.2v-9.9c0-2.6,0.5-5.1,3.7-5.1c3.2,0,3.2,3,3.2,5.3v9.7H-16
	L-16,296z"/>
</svg>
