<?xml version="1.0" encoding="utf-8"?>
<!-- Generator: Adobe Illustrator 19.0.0, SVG Export Plug-In . SVG Version: 6.00 Build 0)  -->
<svg version="1.1" id="Layer_1" xmlns="http://www.w3.org/2000/svg" xmlns:xlink="http://www.w3.org/1999/xlink" x="0px" y="0px"
	 viewBox="7.4 255.4 51.2 51.2" style="enable-background:new 7.4 255.4 51.2 51.2;" xml:space="preserve">
<path d="M58.6,281c0,14.1-11.5,25.6-25.6,25.6S7.4,295.1,7.4,281s11.5-25.6,25.6-25.6S58.6,266.9,58.6,281z M47.3,273.7
	c1.4-1,2.7-2.3,3.7-3.8c-1.3,0.6-2.8,1-4.2,1.1c1.5-0.9,2.7-2.3,3.2-4.1c-1.4,0.8-3,1.5-4.7,1.8c-1.3-1.4-3.3-2.3-5.4-2.3
	c-4.1,0-7.4,3.3-7.4,7.4c0,0.6,0.1,1.1,0.2,1.7c-6.1-0.3-11.6-3.2-15.2-7.7c-0.6,1.1-1,2.3-1,3.7c0,2.6,1.3,4.8,3.3,6.1
	c-1.2,0-2.3-0.4-3.3-0.9v0.1c0,3.6,2.5,6.5,5.9,7.2c-0.6,0.2-1.3,0.3-1.9,0.3c-0.5,0-0.9,0-1.4-0.1c0.9,2.9,3.6,5,6.9,5.1
	c-2.5,2-5.7,3.1-9.1,3.1c-0.6,0-1.2,0-1.8-0.1c3.3,2.1,7.1,3.3,11.3,3.3c13.5,0,21-11.2,21-21C47.3,274.3,47.3,274,47.3,273.7
	L47.3,273.7z"/>
</svg>
